<?xml version="1.0" encoding="UTF-8"?>
<svg viewBox="0 0 1200 1000" xmlns="http://www.w3.org/2000/svg">
 <rect x="14.012" y="813.28" width="1160" height="42.654" fill="#333"/>
 <rect x="14.013" y="849.58" width="1160" height="22.412"/>
 <g stroke="#000">
  <path d="m33.244 787.88l1.2246-0.21167 4.0241 1.3149c0.70338 0.46436 1.069 1.5229 1.7497 2.0114 0 0 1.5746 0.43951 1.5746 0.43951 0.52312 0.31769 2.0225 2.6546 2.4126 3.5746 0.41472 0.97717 1.2266 4.2545 1.3263 5.6144 0.012299 1.3312-0.38652 2.7888 0 3.8271 0.44278 0.96912 1.1321 0.3421 1.8442 1.2419 0.64559 0.8183 0.85904 2.2227 1.3069 3.4644 0.68941 1.9178 1.8878 3.6155 1.8144 6.5223-0.094551 3.7294-3.1808 2.0601-3.7758 5.7203-0.51094 3.139 2.8572 2.6625 2.3077 6.4814-0.41804 2.907-2.2709 2.3411-3.2122 3.1716l-2.2744 3.0252c-0.53541 0.55774-1.1286 1.6242-1.7182 0.80994-1.0393-1.441-0.79959-4.4621-1.0112-5.7609-0.19256-1.1805-0.65956-2.0316-1.1198-2.6381-0.34464-0.45203-0.80843-0.93237-1.202-0.53754-0.68236 0.67999-1.6069 3.759-1.7005 5.4991l-0.87864 10.429c-0.13464 1.4536 0.10865 3.1622 0.10699 4.7498 0 0.88757 0.03677 2.0939-0.17834 2.8428-0.62728 0.42761-0.9723 0.72839-1.6885-0.42438-0.36399-1.8078 0.06649-2.653 0.17322-4.7089 0.034969-2.4796 0.15745-6.4424 0.11186-9.1092l-0.14516-2.85-0.16271-2.0355c-0.05587-0.39899-0.1294-0.83881-0.22575-1.1971-1.0479-3.9002-2.4879 1.5878-3.1492 2.4102-0.32722 0.40723-0.67351 0.41119-1.0339 0.34625-0.52669-0.0979-1.3018-0.4032-1.7497-1.0464-0.45841-0.65546-0.90798-1.9745-1.3997-2.2189-0.7873-0.39459-3.0531 3.9492-3.3924-0.33783-0.034981-0.40723-0.010632-0.80615 0-1.2132 0.06123-1.9908 0.19244-4.2301-0.20641-6.0907-0.52836-2.4631-0.7559-0.84265-1.7077-6.1231-0.13299-0.74109-0.34466-1.645-0.38129-2.4428-0.13837-3.0902 1.7409-4.6414 2.0837-6.5507 0.26227-1.1686 0.02088-2.0601 0-3.2204-0.085831-1.2174 0.17847-3.7538 0.40229-4.849 0.27481-1.3556 0.73144-1.7872 1.1391-2.9598 0.39896-1.1442 0.5878-2.6789 1.2054-3.2895 0.54245-0.53742 1.1478-0.003113 1.9072-1.0545 0.78908-1.0953 1.0656-2.5041 2.0996-3.7781 1.2999-0.70441 2.4599 0.98114 3.4992 1.152h-1.1e-5z" stroke-width=".137"/>
  <path d="m378.2 772.06c1.0306 0.24164 1.5989-1.0854 2.5624 0.79645 0.45209 0.88617 1.1345 2.7915 1.3686 4.0618 0.27292 1.4788 0.32199 3.9248 1.0002 4.863 0.92877 1.2798 1.3973-2.9338 2.5827-2.095 0.86566 0.61621 0.84738 3.1236 0.83313 4.8157-0.044861 5.4177-1.5886 9.7592-1.3891 13.262 0.17514 3.0903 2.0509 3.5881 1.9533 7.5837-0.061127 2.5073-1.047 2.659-2.1714 5.2659-1.2812 2.9814-1.7455 5.7211-2.434 9.437-0.20987 1.1423-0.47455 3.749-0.78641 4.4554-0.62112 1.4078-1.4971 0.005981-2.2893 0.65411-0.60089 0.48822-0.89004 1.7206-1.4524 2.5075-1.059 1.4788-3.3852 1.9432-4.0188 4.7586-0.20154 1.1091-0.034485 5.9297 0 7.5317-0.03653 1.2322 0.003815 3.5026-0.29932 4.5264-0.13452 0.45978-0.30966 0.75366-0.55411 0.75366-0.92258 0-0.81268-3.4031-0.81268-4.806v-6.6357c-0.042786-5.1901-1.2873-4.7019-2.8515-6.2614 0 0-1.8332-2.2087-1.8332-2.2087-0.66406-0.82007-1.3791-2.2942-2.037-2.7018-0.82083-0.5119-2.1878 0.30353-2.65-1.0286-0.55408-1.5971 0.23819-5.7967-0.14871-8.1807-0.32184-1.9957-1.2057-3.2563-1.6498-5.2139-0.24036-1.057-0.80872-5.4554-0.81076-6.6357l0.18945-3.7918c-0.087494-1.8296-0.74963-3.0098-0.74551-4.7398 0.006378-2.0477 0.81891-2.7159 1.4828-5.6879 0.57037-2.5593 1.0632-6.394 1.931-8.432 1.3178-3.1 2.4912-2.9009 3.8272-4.2231 0.63162-0.62116 1.7234-2.9675 3.2591-4.3749 0.62137-0.56885 1.3709-0.55939 2.037-0.7821 2.1406-0.58795 4.7906 2.2703 5.9071 2.5262h3.1e-5z" stroke-width=".159"/>
  <path d="m1155.4 792.16l0.95837-0.16577 3.1486 1.029c0.55054 0.36322 0.83643 1.1915 1.369 1.5737l1.2321 0.34387c0.4093 0.24878 1.5825 2.0772 1.8878 2.797 0.32446 0.76477 0.95972 3.3292 1.0377 4.3932 0.009033 1.0417-0.30261 2.1821 0 2.9944 0.34631 0.75824 0.88574 0.26788 1.443 0.97168 0.505 0.64032 0.672 1.7394 1.0226 2.7109 0.53943 1.5005 1.4772 2.8288 1.4197 5.1036-0.074097 2.918-2.4889 1.6118-2.9545 4.4758-0.39978 2.4562 2.2356 2.0833 1.8058 5.0714-0.32703 2.2747-1.7769 1.8318-2.5134 2.4816 0 0-1.7795 2.3672-1.7795 2.3672-0.41907 0.43634-0.88306 1.2708-1.3445 0.63379-0.81335-1.1277-0.62573-3.4916-0.79126-4.5078-0.15064-0.92364-0.51587-1.5897-0.87622-2.0642-0.26953-0.35358-0.63257-0.72937-0.94043-0.42053-0.53406 0.5321-1.2573 2.9412-1.3306 4.3029 0 0-0.6875 8.1603-0.6875 8.1603-0.10547 1.1373 0.084961 2.4744 0.083618 3.7167 0 0.69452 0.028809 1.6384-0.1394 2.2245-0.49097 0.33447-0.76086 0.5697-1.3213-0.33228-0.28455-1.4146 0.052002-2.0758 0.13586-3.6844 0.0271-1.9403 0.12305-5.0411 0.087402-7.1278l-0.11365-2.23-0.12732-1.5928c-0.043823-0.31201-0.1012-0.65631-0.17676-0.93652-0.81995-3.0519-1.9465 1.2425-2.4641 1.8857-0.25586 0.31879-0.52686 0.3219-0.80884 0.27118-0.41211-0.07666-1.0187-0.31555-1.369-0.81891-0.35876-0.51276-0.71057-1.545-1.0953-1.7361-0.61609-0.30896-2.3888 3.0899-2.6545-0.26459-0.0271-0.3186-0.00769-0.63068 0-0.94928 0.047974-1.5576 0.15064-3.3098-0.16138-4.7656-0.41357-1.9272-0.59143-0.65948-1.3362-4.7913-0.104-0.57971-0.26965-1.2869-0.29858-1.9113-0.10803-2.418 1.3624-3.6316 1.6306-5.1257 0.20532-0.91431 0.016479-1.6118 0-2.5198-0.067139-0.95264 0.13977-2.9373 0.31494-3.7941 0.21484-1.0607 0.57214-1.3986 0.89124-2.316 0.31201-0.89508 0.45996-2.0961 0.94299-2.5739 0.42456-0.42053 0.89832-0.00293 1.4922-0.82501 0.61768-0.85706 0.83386-1.9594 1.6431-2.9562 1.0171-0.55121 1.9248 0.7677 2.7379 0.90143l-1e-4 2e-4z" stroke-width=".107"/>
 </g>
 <g fill-rule="evenodd" stroke="#000" stroke-width=".072">
  <path d="m139.48 845.66h10.996v-1.5737h-1.0895v-1.2913h-1.2509v-2.9457l-0.7631-0.4406v-4.2805l0.7228-0.5044v-0.5044l-0.7869-0.4843v-0.44385l0.0101-0.3237s0.014282-0.27106-0.24255-0.28534c0.014343-0.014343 0.15692-0.45648-0.19977-0.61346 0.042847 0-0.24249-29.632-0.24249-29.632s-0.19488-0.15381-0.3186-0.1839c0.061829-0.030029 0.34711-2.4553 1.0319-3.026 4.88e-4 -0.051331-0.002991-0.10394-0.002991-0.10394l-0.1362-0.0101v-0.17151l0.1664-0.0706v-0.14124s-0.68091-0.055481-0.80701-0.32788c-0.005005-0.025208-0.2774-1.377-0.95837-1.5232 0.032532-0.003418-0.47913-0.005005-0.53503-0.003906-0.055908 0.001221-0.58099 0.005127-0.53503 0.006226-0.55981 0.078979-0.95331 1.498-0.95837 1.5232-0.1261 0.2724-0.80701 0.32788-0.80701 0.32788v0.14124l0.1665 0.0706v0.17151l-0.1362 0.0101s-0.003967 0.052612-0.002991 0.10388c0.68475 0.57062 0.97015 2.996 1.0319 3.0261-0.12372 0.030029-0.3186 0.1839-0.3186 0.1839s-0.28534 29.632-0.24255 29.632c-0.35663 0.15686-0.21399 0.59918-0.19971 0.6134-0.25684 0.014343-0.24249 0.2854-0.24249 0.2854l0.0099 0.3236v0.44391l-0.7868 0.4842v0.50446l0.7228 0.5043v4.2806l-0.7631 0.4406v2.9457h-1.251v1.2913h-1.0895v1.5737h10.996"/>
  <path d="m144.18 796.97l-0.9959-9e-3s0.28711-0.3858 0.323-0.61908c0.053833-0.23328 0.36786-0.27814 0.41272-0.44861 0 0.053833 0.26916-1.6868 0.38586-1.7586 0.11658-0.071777-0.10767-0.098694-0.10767-0.098694s-0.071838 0.18835-0.18848 0.19733c-0.10767 0.009033-0.2063-0.52039-0.2063-0.52039l-9e-3 -0.5922 0.0807-0.0538 0.018-0.1794 0.2871-0.0629s0.11664 0.018005 0.21533 0.10773c0.008972 0 0.12561-0.13464 0.23328-0.10773 0.098694 0.009033 0.035889-0.35889 0.035889-0.35889l-0.3051-0.0179s0.19739-0.92419 0.65497-0.987c0.009033 0-0.011169-0.1228 0.017944-0.13458 0.082947-0.033691 0.14294-0.015503 0.1615 0 0.013428 0.011169 0.017883 0.18842 0.017883 0.18842s0.17944 0.12561 0.26916 0.25122c-0.008972-0.053833 0.15253 0.25128 0.15253 0.25128s0.090759 0.011536 0.098694 0.017883c0.022278 0.017883-0.001038 0.17523-0.008972 0.19745-0.004028 0.012268-0.22436 0.053772-0.22436 0.053772l-0.1345 0.0718-0.0629 0.0359-0.0179 0.4575 0.2153 0.1077 0.0359 0.0718s0.1969-0.020996 0.323 0c0.026917 0.004517 0.14356 0.19745 0.10767 0.3858-0.018005 0.18842 0.080688 0.47559 0.080688 0.47559l0.1256 0.2871 0.0808 0.3499 0.1884 0.0449 0.0718 0.1346-9e-3 0.1166-0.2153 0.0898-0.4755 2.0277-0.1436-0.0538 0.5204-2.0188s-0.11664 0.008972-0.17047-0.044861c-0.053833-0.053833-0.28711-0.59216-0.27814-0.7088-0.017944-0.017944-0.089661-0.026917-0.089661-0.026917v0.24225l0.0628 0.0359-9e-3 1.1395-0.1346 0.6011-0.2602 0.027s-0.080688 0.19733-0.026855 0.25122c0 0.017883 0.36786 0.035828 0.35889 0.42163-0.071838-0.017883-1.4625 0.1795-1.4625 0.16156h6.1e-5z"/>
 </g>
 <path d="m1173.2 829.98v-68.634h1.499v-16.876h-2.8827v-2.7306h-1.3262l-3.9205-5.7553v-5.2512l-4.2341-11.881-0.0283-2.2049v2.2046l-4.5945 11.881v5.2512l-3.9205 5.7553h-1.3259v2.7307h-2.8828v16.876h1.499v68.645l22.118-0.0099-9e-4 -3e-4z" fill="#0f0f0f" fill-rule="evenodd" stroke="#000" stroke-width=".123"/>
 <path d="m1168.2 752.53c0.002563 3.2867-2.9994 5.9524-6.7032 5.9524-3.704 0-6.7058-2.6657-6.7032-5.9524-0.002563-3.2869 2.9993-5.9526 6.7032-5.9526s6.7058 2.6657 6.7032 5.9526z" fill="#fff"/>
 <path d="m1126.9 799l36.201-0.0932v31.075l-36.276 0.0931 0.0751-31.075v1.83e-4z" fill="#0f0f0f" fill-rule="evenodd"/>
 <g fill-rule="evenodd">
  <path d="m714.74 739.09l-5.1314 6.9523-0.2337-22.868-3.261-4.3761-4.2155 4.235-0.0631 105.96 42.242-13.536v13.575l0.0629-105.5-3.487-5.1406-4.1057 4.7913v22.958l-4.9493-6.9277-4.5663-0.0114-0.1075-6.5376-4.0283-5.7436-3.9712 5.8832 0.0087 6.2961-4.194-0.0041h1.22e-4z" fill="#0f0f0f"/>
  <g stroke="#000">
   <path d="m914.97 817.37v-30.187l-4.2016-10.44v-8.4513s-7.0902-15.384-7.3704-26.072c-0.11945-0.38849-0.15161-0.40051-0.26178-0.014648-0.28015 10.688-7.3398 26.084-7.3398 26.084v8.4512l-4.2016 8.2518v32.376" fill="#0e0e0e" stroke-width=".018"/>
   <g stroke-width=".206">
    <path d="m854.06 852.84h-24.25v-68.323l3.1467-6.3191 2.4624 6.2817 0.0321 6.4672h13.272v-7.0225l2.6129-5.7028 2.6948 5.8119 0.0289 68.807h6.1e-5z"/>
    <path d="m976.67 852.88h-24.25v-68.323l3.1467-6.3192 2.4624 6.2817 0.0321 6.4672h13.272v-7.0225l2.6128-5.7028 2.6948 5.8119 0.0289 68.807z"/>
   </g>
   <path d="m722.49 852.84h-24.25v-68.323l3.1467-6.3191 2.4623 6.2816 0.0321 6.4673h13.272v-7.0226l2.6129-5.7028 2.6949 5.8119 0.0288 68.807z"/>
   <path d="m682.77 852.84l-24.25 0.0333v-68.356l3.1467-6.319 2.4623 6.2817 0.0321 6.4672h13.272v-7.0225l2.6128-5.7028 2.6949 5.812 0.0289 68.807z"/>
   <path d="m686.62 802.59l0.0732 0.5097c0.65057 0.35822 0.72058 1.2474 0.70544 1.2529l-0.0219 5.4011-1.5656 0.0087-0.0218-5.4099c-0.015259-0.00531 0.05481-0.89471 0.70538-1.2529l0.0442-0.5097 0.0809 2e-4z" stroke-width=".234"/>
   <path d="m667.8 809.99h45.945l-1.056 42.686-45.243 0.0175 0.3539-42.703z" stroke-width="1.861"/>
   <path d="m695.04 802.59l0.0732 0.5097c0.65064 0.35822 0.72064 1.2474 0.70544 1.2529l-0.0218 5.4011-1.5656 0.0087-0.0218-5.4099c-0.015198-0.00531 0.05481-0.89471 0.70538-1.2529l0.0442-0.5097 0.081 2e-4z" stroke-width=".234"/>
   <path d="m1148.1 852.86h-24.25v-68.323l3.1467-6.3191 2.4624 6.2816 0.032 6.4675h13.272v-7.0226l2.6128-5.7028 2.6949 5.8118 0.0287 68.807h3.66e-4z"/>
   <path d="m1108.4 852.86h-24.25v-68.323l3.1466-6.3191 2.4624 6.2817 0.0319 6.4672h13.272v-7.0225l2.6129-5.7029 2.6948 5.812 0.0288 68.807h1.22e-4z"/>
   <path d="m1112.2 802.61l0.0735 0.5097c0.65039 0.35834 0.72058 1.2475 0.70532 1.2531l-0.022 5.4008-1.5656 0.0087-0.0216-5.4098c-0.015381-0.005371 0.05481-0.89471 0.70532-1.2529l0.0441-0.5097 0.0809 1e-4z" stroke-width=".234"/>
   <path d="m1094 810h44.723l-1.0278 42.696-44.04 0.0175 0.3448-42.713z" stroke-width="1.836"/>
   <path d="m1120.6 802.61l0.0732 0.5097c0.65051 0.35834 0.72058 1.2475 0.70544 1.2531l-0.0216 5.4008-1.5656 0.0087-0.022-5.4098c-0.015381-0.005371 0.054688-0.89471 0.7052-1.2529l0.0442-0.5097 0.0809 1e-4h1.22e-4z" stroke-width=".234"/>
   <g stroke-width=".234">
    <path d="m729.54 808.31l0.0732 0.5097c0.65057 0.35815 0.72058 1.2474 0.70544 1.2529l-0.0219 5.4011-1.5655 0.0086-0.0219-5.4099c-0.015259-0.005432 0.054932-0.89459 0.70538-1.2529l0.0442-0.5098 0.0811 2e-4z"/>
    <path d="m738.78 808.31l0.0732 0.5097c0.65051 0.35815 0.72052 1.2474 0.70544 1.2529l-0.0219 5.4011-1.5656 0.0086-0.0219-5.4099c-0.015076-0.005432 0.054932-0.89459 0.70544-1.2529l0.0442-0.5098 0.0811 2e-4z"/>
    <path d="m748.2 808.31l0.0733 0.5097c0.65045 0.35815 0.72058 1.2474 0.70532 1.2529l-0.0219 5.4011-1.5656 0.0086-0.0217-5.4099c-0.015259-0.005432 0.05481-0.89459 0.70532-1.2529l0.0441-0.5098 0.0811 2e-4z"/>
    <path d="m757.44 808.31l0.0732 0.5097c0.65064 0.35815 0.72064 1.2474 0.70557 1.2529l-0.0219 5.4011-1.5656 0.0086-0.0218-5.4099c-0.015259-0.005432 0.054932-0.89459 0.70538-1.2529l0.0442-0.5098 0.081 2e-4z"/>
    <path d="m766.8 808.45l0.0733 0.5097c0.65057 0.35822 0.72058 1.2474 0.70532 1.2529l-0.0219 5.4009-1.5654 0.0087-0.0219-5.4099c-0.015259-0.005432 0.054749-0.89465 0.70532-1.2529l0.0441-0.5097 0.0811 2e-4z"/>
    <path d="m776.03 808.45l0.0732 0.5097c0.65051 0.35822 0.72058 1.2474 0.70544 1.2529l-0.0218 5.4009-1.5656 0.0087-0.0219-5.4099c-0.015198-0.005432 0.054932-0.89465 0.70538-1.2529l0.0442-0.5097 0.081 2e-4z"/>
    <path d="m785.46 808.45l0.0732 0.5097c0.65051 0.35822 0.72052 1.2474 0.70544 1.2529l-0.0218 5.4009-1.5657 0.0087-0.0218-5.4099c-0.015259-0.005432 0.054871-0.89465 0.70538-1.2529l0.0443-0.5097 0.0809 2e-4z"/>
    <path d="m794.69 808.45l0.0733 0.5097c0.65045 0.35822 0.72052 1.2474 0.70532 1.2529l-0.0218 5.4009-1.5656 0.0087-0.0218-5.4099c-0.015259-0.005432 0.054749-0.89465 0.70532-1.2529l0.0442-0.5097 0.081 2e-4z"/>
    <path d="m804.5 808.17l0.0732 0.5097c0.65057 0.35822 0.72064 1.2475 0.70544 1.2529l-0.0218 5.4009-1.5656 0.0086-0.0219-5.4097c-0.015198-0.005371 0.054871-0.89471 0.70544-1.2529l0.0442-0.5098 0.081 2e-4z"/>
    <path d="m813.92 808.17l0.0733 0.5097c0.65064 0.35822 0.72064 1.2475 0.70544 1.2529l-0.0218 5.4009-1.5656 0.0086-0.0218-5.4097c-0.015259-0.005371 0.05481-0.89471 0.70532-1.2529l0.0442-0.5098 0.0809 2e-4z"/>
    <path d="m823.16 808.17l0.0732 0.5097c0.65051 0.35822 0.72052 1.2475 0.70538 1.2529l-0.0217 5.4009-1.5657 0.0086-0.0219-5.4097c-0.015259-0.005371 0.05481-0.89471 0.70532-1.2529l0.0443-0.5098 0.081 2e-4z"/>
   </g>
   <path d="m705.1 815.29h142.17v37.526l-142.69 0.0316 0.5214-37.558z" stroke-width="1.15"/>
   <g stroke-width=".236">
    <path d="m982.99 808.34l0.0742 0.5098c0.65863 0.35809 0.72955 1.2475 0.71423 1.2529l-0.0221 5.401-1.5851 0.0085-0.0221-5.4097c-0.015381-0.005432 0.055603-0.89478 0.71417-1.253l0.0448-0.5096 0.082 2e-4z"/>
    <path d="m992.34 808.34l0.0742 0.5098c0.65869 0.35809 0.72955 1.2475 0.71411 1.2529l-0.022 5.401-1.5851 0.0085-0.0221-5.4097c-0.015503-0.005432 0.055481-0.89478 0.71423-1.253l0.0446-0.5096 0.0821 2e-4h-1.22e-4z"/>
    <path d="m1001.9 808.34l0.0741 0.5098c0.65869 0.35809 0.72955 1.2475 0.71423 1.2529l-0.0222 5.401-1.5851 0.0085-0.022-5.4097c-0.01532-0.005432 0.055542-0.89478 0.71423-1.253l0.0447-0.5096 0.082 2e-4z"/>
    <path d="m1011.2 808.34l0.0742 0.5098c0.65863 0.35809 0.72949 1.2475 0.71411 1.2529l-0.0221 5.401-1.585 0.0085-0.0221-5.4097c-0.01532-0.005432 0.055542-0.89478 0.71423-1.253l0.0447-0.5096 0.082 2e-4h-6.1e-5z"/>
    <path d="m1020.7 808.48l0.0741 0.5096c0.65869 0.35822 0.72968 1.2475 0.71417 1.2529l-0.022 5.4011-1.5851 0.0086-0.0221-5.4097c-0.015381-0.005493 0.055542-0.89484 0.71423-1.2529l0.0446-0.5098 0.0821 3e-4z"/>
    <path d="m1030.1 808.48l0.0742 0.5096c0.65857 0.35822 0.72949 1.2475 0.71411 1.2529l-0.0221 5.4011-1.5851 0.0086-0.0221-5.4097c-0.015381-0.005493 0.055542-0.89484 0.71423-1.2529l0.0448-0.5098 0.0819 3e-4z"/>
    <path d="m1039.6 808.48l0.0741 0.5096c0.65869 0.35822 0.72974 1.2475 0.71423 1.2529l-0.022 5.4011-1.5851 0.0086-0.0222-5.4097c-0.015381-0.005493 0.055542-0.89484 0.71423-1.2529l0.0448-0.5098 0.0819 3e-4z"/>
    <path d="m1049 808.48l0.0741 0.5096c0.65881 0.35822 0.72961 1.2475 0.71423 1.2529l-0.022 5.4011-1.5851 0.0086-0.0222-5.4097c-0.015381-0.005493 0.055664-0.89484 0.71423-1.2529l0.0448-0.5098 0.082 3e-4h-1.22e-4z"/>
    <path d="m1058.9 808.2l0.074 0.5097c0.65869 0.35828 0.72961 1.2475 0.71423 1.253l-0.022 5.4009-1.5851 0.0087-0.0222-5.4098c-0.015259-0.005493 0.055664-0.89471 0.71423-1.2529l0.0448-0.5098 0.082 2e-4z"/>
    <path d="m1068.4 808.2l0.0742 0.5097c0.65869 0.35828 0.72961 1.2475 0.71411 1.253l-0.022 5.4009-1.5852 0.0087-0.0221-5.4098c-0.015381-0.005493 0.055542-0.89471 0.71423-1.2529l0.0448-0.5098 0.0819 2e-4z"/>
    <path d="m1077.8 808.2l0.074 0.5097c0.65881 0.35828 0.72974 1.2475 0.71423 1.253l-0.0221 5.4009-1.5851 0.0087-0.0221-5.4098c-0.015259-0.005493 0.055664-0.89471 0.71423-1.2529l0.0447-0.5098 0.082 2e-4h1.22e-4z"/>
   </g>
   <path d="m960.35 815.32h139.71v37.532h-140.22l0.5123-37.532z" stroke-width="1.14"/>
   <g stroke-width=".234">
    <path d="m859.8 803.29l0.0733 0.5098c0.65051 0.35815 0.72058 1.2474 0.70538 1.2529l-0.0219 5.4011-1.5656 0.0085-0.0219-5.4099c-0.015137-0.005371 0.054993-0.89465 0.70544-1.2529l0.0442-0.5096 0.081 2e-4z"/>
    <path d="m869.47 803.26l0.0731 0.5097c0.65064 0.35809 0.72076 1.2474 0.7055 1.2529l-0.0219 5.4011-1.5655 0.0087-0.0218-5.4099c-0.015259-0.005432 0.054871-0.89471 0.70538-1.2529l0.0441-0.5098 0.0811 2e-4z"/>
    <path d="m878.92 803.26l0.0733 0.5097c0.65051 0.35809 0.72058 1.2474 0.70544 1.2529l-0.0219 5.4011-1.5656 0.0087-0.0219-5.4099c-0.015259-0.005432 0.054871-0.89471 0.70538-1.2529l0.0441-0.5098 0.0811 2e-4z"/>
    <path d="m888.59 803.26l0.0734 0.5097c0.65057 0.35809 0.72058 1.2474 0.70544 1.2529l-0.0219 5.4011-1.5655 0.0087-0.0219-5.4099c-0.015259-0.005432 0.054871-0.89471 0.70532-1.2529l0.0442-0.5098 0.0809 2e-4z"/>
    <path d="m898.1 803.26l0.0732 0.5097c0.65045 0.35809 0.72046 1.2474 0.70532 1.2529l-0.0219 5.4011-1.5655 0.0087-0.0219-5.4099c-0.015137-0.005432 0.054932-0.89471 0.70544-1.2529l0.0441-0.5098 0.081 2e-4h1.22e-4z"/>
    <path d="m907.61 803.26l0.0734 0.5097c0.65045 0.35809 0.72064 1.2474 0.70538 1.2529l-0.0219 5.4011-1.5656 0.0087-0.0217-5.4099c-0.015198-0.005432 0.054749-0.89471 0.70538-1.2529l0.0441-0.5098 0.0809 2e-4z"/>
    <path d="m916.89 803.26l0.0732 0.5097c0.65057 0.35809 0.72058 1.2474 0.70544 1.2529l-0.0219 5.4011-1.5656 0.0087-0.0219-5.4099c-0.015259-0.005432 0.054871-0.89471 0.70544-1.2529l0.0441-0.5098 0.081 2e-4z"/>
    <path d="m926.45 803.26l0.0732 0.5097c0.65051 0.35809 0.72046 1.2474 0.70538 1.2529l-0.0219 5.4011-1.5655 0.0087-0.0219-5.4099c-0.015198-0.005432 0.05481-0.89471 0.70532-1.2529l0.0443-0.5098 0.0809 2e-4h6.1e-5z"/>
    <path d="m936.06 803.26l0.0732 0.5097c0.65057 0.35809 0.72058 1.2474 0.70544 1.2529l-0.0218 5.4011-1.5656 0.0087-0.0218-5.4099c-0.015259-0.005432 0.05481-0.89471 0.70532-1.2529l0.0441-0.5098 0.0811 2e-4z"/>
    <path d="m945.74 803.26l0.0733 0.5097c0.65045 0.35809 0.72058 1.2474 0.70532 1.2529l-0.0217 5.4011-1.5656 0.0087-0.0219-5.4099c-0.015198-0.005432 0.05481-0.89471 0.70538-1.2529l0.0441-0.5098 0.0811 2e-4z"/>
   </g>
   <path d="m837.33 810.51h132.09v42.316h-132.68l0.5857-42.316z" stroke-width="1.156"/>
  </g>
 </g>
 <path d="m529.9 413.07c0 6.571-5.483 11.897-12.246 11.897-6.764 0-12.247-5.326-12.247-11.897 0-6.57 5.483-11.897 12.247-11.897 6.763 0 12.246 5.327 12.246 11.897z"/>
 <path d="m482.87 421.94c0 6.57-5.483 11.896-12.246 11.896-6.764 0-12.247-5.326-12.247-11.896 0-6.571 5.483-11.897 12.247-11.897 6.763 0 12.246 5.326 12.246 11.897z"/>
 <path d="m445.11 436.22c0 6.571-5.483 11.897-12.247 11.897-6.763 0-12.246-5.326-12.246-11.897 0-6.57 5.483-11.896 12.246-11.896 6.764 0 12.247 5.326 12.247 11.896z"/>
 <path d="m409.94 458.06c0 6.57-5.483 11.897-12.247 11.897-6.763 0-12.246-5.327-12.246-11.897 0-6.571 5.483-11.897 12.246-11.897 6.764 0 12.247 5.326 12.247 11.897z"/>
 <path d="m381.11 485.23c0 6.571-5.483 11.897-12.246 11.897-6.764 0-12.247-5.326-12.247-11.897 0-6.57 5.483-11.896 12.247-11.896 6.763 0 12.246 5.326 12.246 11.896z"/>
 <path d="m357.76 517.44c0 6.57-5.483 11.897-12.246 11.897-6.764 0-12.247-5.327-12.247-11.897 0-6.571 5.483-11.897 12.247-11.897 6.763 0 12.246 5.326 12.246 11.897z"/>
 <path d="m340.46 554.4c0 6.571-5.483 11.897-12.247 11.897-6.763 0-12.246-5.326-12.246-11.897 0-6.57 5.483-11.897 12.246-11.897 6.764 0 12.247 5.327 12.247 11.897z"/>
 <path d="m331.23 593.61c0 6.571-5.483 11.897-12.247 11.897-6.763 0-12.246-5.326-12.246-11.897 0-6.57 5.483-11.897 12.246-11.897 6.764 0 12.247 5.327 12.247 11.897z"/>
 <path d="m328.35 633.38c0 6.571-5.483 11.897-12.247 11.897-6.763 0-12.246-5.326-12.246-11.897 0-6.57 5.483-11.897 12.246-11.897 6.764 0 12.247 5.327 12.247 11.897z"/>
 <path d="m335.27 674.27c0 6.571-5.483 11.897-12.247 11.897-6.763 0-12.246-5.326-12.246-11.897 0-6.57 5.483-11.896 12.246-11.896 6.764 0 12.247 5.326 12.247 11.896z"/>
 <path d="m348.53 712.36c0 6.571-5.483 11.897-12.247 11.897-6.763 0-12.246-5.326-12.246-11.897 0-6.57 5.483-11.897 12.246-11.897 6.764 0 12.247 5.327 12.247 11.897z"/>
 <path d="m370.73 749.88c0 6.57-5.483 11.896-12.247 11.896-6.763 0-12.246-5.326-12.246-11.896 0-6.571 5.483-11.897 12.246-11.897 6.764 0 12.247 5.326 12.247 11.897z"/>
 <path d="m403.88 783.49c0 6.57-5.483 11.896-12.247 11.896-6.763 0-12.246-5.326-12.246-11.896 0-6.571 5.483-11.897 12.246-11.897 6.764 0 12.247 5.326 12.247 11.897z"/>
 <path d="m441.07 808.98c0 6.57-5.482 11.896-12.246 11.896-6.763 0-12.246-5.326-12.246-11.896 0-6.571 5.483-11.897 12.246-11.897 6.764 0 12.246 5.326 12.246 11.897z"/>
 <path d="m489.63 827.18c0 6.571-5.483 11.897-12.246 11.897-6.764 0-12.247-5.326-12.247-11.897 0-6.57 5.483-11.896 12.247-11.896 6.763 0 12.246 5.326 12.246 11.896z"/>
 <path d="m545.29 831.64c0 6.571-5.483 11.897-12.246 11.897-6.764 0-12.247-5.326-12.247-11.897 0-6.57 5.483-11.897 12.247-11.897 6.763 0 12.246 5.327 12.246 11.897z"/>
 <path d="m593.72 829c0 6.57-5.482 11.896-12.246 11.896s-12.247-5.326-12.247-11.896c0-6.571 5.483-11.897 12.247-11.897s12.246 5.326 12.246 11.897z"/>
 <path d="m644.6 812.62c0 6.571-5.48 11.897-12.25 11.897-6.76 0-12.24-5.326-12.24-11.897 0-6.57 5.48-11.897 12.24-11.897 6.77 0 12.25 5.327 12.25 11.897z"/>
 <path d="m686.98 785.45c0 6.57-5.48 11.897-12.25 11.897-6.76 0-12.24-5.327-12.24-11.897 0-6.571 5.48-11.897 12.24-11.897 6.77 0 12.25 5.326 12.25 11.897z"/>
 <path d="m718.69 752.68c0 6.571-5.48 11.897-12.25 11.897-6.7599 0-12.24-5.326-12.24-11.897 0-6.57 5.4801-11.897 12.24-11.897 6.77 0 12.25 5.327 12.25 11.897z"/>
 <path d="m742.04 716.56c0 6.57-5.48 11.897-12.25 11.897-6.76 0-12.24-5.327-12.24-11.897s5.48-11.897 12.24-11.897c6.77 0 12.25 5.327 12.25 11.897z"/>
 <path d="m756.74 676.79c0 6.571-5.48 11.897-12.24 11.897-6.77 0-12.25-5.326-12.25-11.897s5.48-11.897 12.25-11.897c6.76 0 12.24 5.326 12.24 11.897z"/>
 <path d="m763.95 637.02c0 6.57-5.48 11.897-12.25 11.897-6.76 0-12.24-5.327-12.24-11.897s5.48-11.897 12.24-11.897c6.77 0 12.25 5.327 12.25 11.897z"/>
 <path d="m763.09 595.85c0 6.57-5.49 11.896-12.25 11.896s-12.25-5.326-12.25-11.896c0-6.571 5.49-11.897 12.25-11.897s12.25 5.326 12.25 11.897z"/>
 <path d="m753 554.4c0 6.571-5.49 11.897-12.25 11.897s-12.25-5.326-12.25-11.897c0-6.57 5.49-11.897 12.25-11.897s12.25 5.327 12.25 11.897z"/>
 <path d="m736.85 519.68c0 6.571-5.48 11.897-12.24 11.897-6.77 0-12.25-5.326-12.25-11.897 0-6.5701 5.48-11.897 12.25-11.897 6.76 0 12.24 5.327 12.24 11.897z"/>
 <path d="m711.77 485.51c0 6.571-5.48 11.897-12.24 11.897-6.77 0-12.25-5.326-12.25-11.897 0-6.57 5.48-11.896 12.25-11.896 6.76 0 12.24 5.326 12.24 11.896z"/>
 <path d="m683.52 458.62c0 6.57-5.48 11.897-12.25 11.897-6.76 0-12.24-5.327-12.24-11.897 0-6.571 5.48-11.897 12.24-11.897 6.77 0 12.25 5.326 12.25 11.897z"/>
 <path d="m648.35 436.5c0 6.57-5.48 11.896-12.25 11.896-6.76 0-12.24-5.326-12.24-11.896 0-6.571 5.48-11.897 12.24-11.897 6.77 0 12.25 5.326 12.25 11.897z"/>
 <path d="m610.3 421.38c0 6.571-5.483 11.897-12.246 11.897-6.764 0-12.247-5.326-12.247-11.897 0-6.57 5.483-11.896 12.247-11.896 6.763 0 12.246 5.326 12.246 11.896z"/>
 <path d="m571.66 413.82c0 6.57-5.483 11.897-12.247 11.897-6.763 0-12.246-5.327-12.246-11.897 0-6.571 5.483-11.897 12.246-11.897 6.764 0 12.247 5.326 12.247 11.897z"/>
 <g stroke="#000">
  <g fill="none">
   <path d="m708.29 621.07c0 95.146-79.4 172.28-177.34 172.28-97.943 0-177.34-77.132-177.34-172.28 0-95.146 79.398-172.28 177.34-172.28 97.941 0 177.34 77.132 177.34 172.28z" stroke-width=".9"/>
   <path d="m737.09 622.26c0 109.12-91.06 197.58-203.39 197.58s-203.39-88.46-203.39-197.58 91.061-197.58 203.39-197.58 203.39 88.461 203.39 197.58z" stroke-width="2.828"/>
   <path d="m466.74 460.27l-18.346-15.249 1.427 23.17-17.735-14.258 1.427 22.179-16.512-13.466 3.466 22.378-17.735-10.1 5.911 19.803-22.423-5.743 9.785 18.021-20.997-4.159 10.6 18.417-23.238-3.1689 13.861 17.427h-22.016l14.27 11.882-21.404 3.762 14.677 11.684-22.016 6.535 16.104 12.476-18.754 9.307 17.327 8.317-22.016 11.486 17.124 3.169-17.939 15.248 19.977 2.377-17.939 16.634 22.016 0.99-18.958 16.833 22.016-0.396-17.327 15.842 24.258 0.396-16.105 16.238 22.016-2.376-15.085 21.387 24.055-7.525-13.862 24.556 23.239-9.901-8.562 28.714 23.035-13.07-6.727 28.912 23.85-14.456-4.28 28.516 20.996-16.238-1.835 29.902 20.793-20.199 3.873 29.111 19.162-20.595 5.504 29.11 16.512-23.566 8.358 27.329 12.434-25.744 13.454 27.328 8.562-27.13 13.658 25.348 7.746-28.715 17.531 23.764 3.67-28.319 19.977 21.586 0.815-29.11 21.199 19.802-1.63-30.892 22.22 17.426-4.6899-28.318 20.79 15.446-5.7001-29.902 24.05 11.486-8.5601-29.111 24.67 9.506-13.05-26.14 25.89 7.921-17.53-25.744 27.11 2.376-19.77-20.199 24.25-1.188-20.38-17.822 25.68-6.535-23.03-15.249 24.46-6.138-22.42-11.288 22.62-6.139-25.07-8.516 22.22-13.465-27.32-2.179 20.59-14.852h-22.62l22.21-15.05-28.53 0.792 18.34-19.011-26.5 6.337 17.94-19.605-25.89 2.376 11.83-22.773-24.47 9.307 9.38-25.941-21.4 12.475 6.11-26.536-21.2 15.447 1.4301-28.913-18.04 17.526-3.45-29.135-21.041 15.963-4.325-26.045-16.144 19.884-3.459-24.365-14.991 21.565-7.784-24.645-8.937 21.284-11.243-23.805-7.495 23.805-14.991-21.004-2.019 22.404-19.315-18.763-1.153 23.524-17.874-17.083-2.644 23.049h0.001038z" stroke-width=".306"/>
  </g>
  <path d="m547.05 616.71c0 7.328-6.115 13.268-13.658 13.268s-13.658-5.94-13.658-13.268c0-7.327 6.115-13.268 13.658-13.268s13.658 5.941 13.658 13.268z" stroke-width=".9"/>
  <g fill-rule="evenodd">
   <path d="m527.39 628.06l4.335 0.052s-6.376 59.471-25.375 228.28l-22.191-0.418" stroke-width=".349"/>
   <path d="m536.31 627.86l-4.439 0.052s9.172 71.455 28.252 229.06l20.447-1.21" stroke-width=".353"/>
  </g>
 </g>
 <g stroke="#000">
  <g fill-rule="evenodd">
   <path d="m236.1 746.79l1.0171 0.0283 0.8904-6.0856 0.413-2.2027-0.5824-0.0521-0.0548-0.4653 0.73-0.0307 0.5748-4.4195 0.2688-2.4265 0.2338 2.4822 0.6026 4.3647 0.5834 0.0266 0.061 0.5026-0.5981-0.0549 1.6709 12.684 0.1159 87.911-22.122-0.0029v-87.914l1.6996-12.904-0.5282 0.0602 0.0431-0.4305 0.5332-0.0529 0.5289-3.4508 0.331-2.8944 0.1886 2.9146 0.5079 3.279 0.5313 0.0464-0.0217 0.3497-0.441 0.0564 0.5303 2.6183 1.6376 6.0496 1.0152-0.0094 4.643-20.359 4.9967 20.382v-1.83e-4z"/>
   <path d="m372.94 746.69h1.4064l0.8905-6.1419 0.413-2.2029-0.5825-0.052-0.0548-0.4655 0.7299-0.0305 0.5747-4.4194 0.2688-2.4265 0.234 2.4821 0.6025 4.365 0.5834 0.0263 0.061 0.5025-0.5983-0.0549 1.6711 12.684 0.1158 87.911-22.122-0.0031v-87.914l1.6997-12.904-0.5284 0.0602 0.0433-0.4303 0.5332-0.0529 0.5288-3.4511 0.3311-2.8944 0.1886 2.9146 0.5078 3.2789 0.5313 0.0465-0.0217 0.3496-0.4413 0.0563 0.5305 2.6183 1.4011 6.3222 1.3051 0.0096 4.5896-20.65 4.6074 20.467z"/>
   <path d="m357.17 765.52l-52.474 0.019v-1.241s0.32056-2.5012-0.94653-2.3696c0.045746-0.018677-1.145-0.22571-1.038 2.0497l-2.5495-0.0374-0.0305-1.9371s1.7403-2.5198-0.59537-3.4225c-1.1859 0.59033-1.1774 1.9845-0.48941 3.234 0.32578 0.59174 0.1239 1.5199 0.12317 2.163l-2.5953 0.019s0.082245-2.0338-0.64108-2.0309c0 0-1.6016-0.49963-1.2351 2.9229h-52.944v9.6462h118.01v-9.0422l-2.5905 0.0267v1.22e-4z"/>
  </g>
  <g fill="none">
   <g stroke-width="3.3">
    <path d="m221.62 775.19c-33.748 41.512-50.635 60.742-93.811 62.395 0 0-33.806 2.3814-52.764-15.364v0.10632"/>
    <path d="m221.1 773.03s-48.078 55.012-93.43 61.346c0 0-23.594 2.4607-53.271-15.893"/>
   </g>
   <path d="m208.7 785.99l-3.6028 9.3272"/>
   <path d="m203.27 790.35l7.3276-0.6019"/>
   <path d="m204.25 790.65l-2.6868 8.1239 0.2443-0.2258"/>
   <path d="m190.54 802.87l7.5718-0.6771"/>
   <path d="m188.98 803.96l-7.0222 13.765"/>
   <path d="m180.64 810.7l10.259 0.677"/>
   <path d="m179.3 811.15l-6.839 14.216"/>
   <path d="m171.79 816.04l8.9764 4.2123"/>
   <path d="m170.2 817.39l-7.1444 13.013"/>
   <path d="m162.57 821.6l9.0984 4.9644"/>
   <path d="m161.72 822.43l-7.8161 11.358"/>
   <path d="m153.59 826.49l8.1825 4.438"/>
   <path d="m150.78 828l-6.0453 8.1989"/>
   <path d="m144.07 830.48l7.0223 3.8362"/>
   <path d="m141.5 831.68c-0.24419 0-5.6177 5.4159-5.6177 5.4159"/>
   <path d="m135.52 832.96l5.9841 3.5352"/>
   <path d="m133.75 833.94l-4.3965 3.9114"/>
   <g stroke-width="2">
    <path d="m128.74 834.69l6.2284 3.2346"/>
    <path d="m208.12 791.36v52.804"/>
    <path d="m198.96 794.67v49.796"/>
    <path d="m189.8 801.74v42.65"/>
    <path d="m180.4 809.57v34.601"/>
    <path d="m170.87 816.04v28.132"/>
    <path d="m162.08 820.85v23.168l0.236-0.1679 0.0081 0.0175"/>
    <path d="m152.8 825.66v18.504"/>
    <path d="m143.88 829.58v14.894"/>
    <path d="m134.6 832.74v11.885"/>
   </g>
   <path d="m199.48 794.94l6.8084-0.5264"/>
   <path d="m196.89 797.04l-5.6178 12.562"/>
   <g stroke-width="2">
    <path d="m116.96 843.96v-10.305"/>
    <path d="m107.25 843.96v-11.809"/>
    <path d="m98.088 843.73v-14.216"/>
    <path d="m88.867 843.36v-17.225h0.24429"/>
    <path d="m79.952 842.91v-21.287"/>
   </g>
   <path d="m117.26 836.74l7.2054-2.0309"/>
   <path d="m117.32 833.5l7.694 4.137"/>
   <path d="m107.61 835.84l10.014-1.6549"/>
   <path d="m107.74 832.08l9.4037 5.7167v-0.075256"/>
   <path d="m98.21 834.18l8.7931-1.8052"/>
   <path d="m98.332 829.67l8.4268 6.7698"/>
   <path d="m89.05 831.55l8.9152-2.1061"/>
   <path d="m89.111 825.98l8.793 8.274"/>
   <path d="m80.074 826.96l8.5489-0.9028"/>
   <path d="m80.318 821.54l8.1825 9.4776"/>
  </g>
 </g>
 <g fill="none" stroke="#000">
  <g stroke-width="3.3">
   <path d="m376.98 775.44c33.748 41.512 50.635 60.742 93.811 62.395 0 0 33.806 2.3816 52.765-15.364"/>
   <path d="m377.5 773.27s48.078 55.012 93.43 61.346c0 0 23.594 2.4608 53.271-15.893"/>
  </g>
  <path d="m389.89 786.23l3.6026 9.3271"/>
  <path d="m395.33 790.6l-7.3275-0.6017"/>
  <path d="m394.35 790.9l2.6867 8.1237-0.2442-0.2255"/>
  <path d="m408.06 803.12l-7.5718-0.677"/>
  <path d="m409.62 804.21l7.0222 13.765"/>
  <path d="m417.95 810.94l-10.259 0.6771"/>
  <path d="m419.3 811.39l6.8392 14.216"/>
  <path d="m426.81 816.28l-8.9763 4.2123"/>
  <path d="m428.4 817.64l7.1443 13.013"/>
  <path d="m436.03 821.85l-9.0985 4.9644"/>
  <path d="m436.88 822.68l7.816 11.358"/>
  <path d="m445 826.74l-8.1825 4.4379"/>
  <path d="m447.81 828.24l6.0451 8.1987"/>
  <path d="m454.53 830.73l-7.0223 3.8365"/>
  <path d="m457.09 831.93c0.24417 0 5.6176 5.4157 5.6176 5.4157"/>
  <path d="m463.08 833.21l-5.9841 3.5352"/>
  <path d="m464.85 834.19l4.3965 3.9114"/>
  <g stroke-width="2">
   <path d="m469.86 834.94l-6.2286 3.2345"/>
   <path d="m390.48 791.61v52.804"/>
   <path d="m399.63 794.92v49.796"/>
   <path d="m408.79 801.99v42.65"/>
   <path d="m418.2 809.81v34.601"/>
   <path d="m427.72 816.28v28.132"/>
   <path d="m436.52 821.1v23.168l-0.2361-0.168-0.0081 0.0173"/>
   <path d="m445.8 825.91v18.504"/>
   <path d="m454.71 829.82v14.894"/>
   <path d="m463.99 832.98v11.885"/>
  </g>
  <path d="m399.12 795.18l-6.8086-0.5266"/>
  <path d="m401.71 797.29l5.6177 12.562"/>
  <g stroke-width="2">
   <path d="m481.64 844.21v-10.305"/>
   <path d="m491.35 844.21v-11.809"/>
   <path d="m500.51 843.98v-14.216"/>
   <path d="m509.73 843.61v-17.225h-0.24442"/>
   <path d="m518.65 843.15v-21.287"/>
  </g>
  <path d="m481.34 836.99l-7.2054-2.0311"/>
  <path d="m481.28 833.75l-7.6939 4.137"/>
  <path d="m490.98 836.08l-10.014-1.6547"/>
  <path d="m490.86 832.32l-9.4037 5.7167v-0.075256"/>
  <path d="m500.39 834.43l-8.7933-1.8053"/>
  <path d="m500.27 829.92l-8.4267 6.7697"/>
  <path d="m509.55 831.8l-8.9152-2.1061"/>
  <path d="m509.49 826.23l-8.793 8.274"/>
  <path d="m518.52 827.21l-8.5488-0.9028"/>
  <path d="m518.28 821.79l-8.1825 9.4778"/>
  <g stroke-width="2.138">
   <path d="m536.97 818.79l30.834 22.908"/>
   <path d="m535.72 820.07l29.217 22.23"/>
  </g>
 </g>
 <g stroke="#000">
  <g fill-rule="evenodd">
   <path d="m128.75 845.16l-0.0216-7.1804s-1.1441-0.2395-1.0794-0.77118c0.064796-0.53192 0.7137-0.14636 0.90678-0.79797 0.61923-2.0894-0.30222-3.6167-1.9543-3.6493-1.8248 0.007385-2.6383 1.5745-2.0191 3.6639 0.19299 0.65167 0.84188 0.26581 0.90668 0.79791 0.064796 0.53186-1.0794 0.77112-1.0794 0.77112l-0.054 6.795v0.39886l4.3944-0.028z"/>
   <path d="m474.07 845.13l-0.0216-7.1804s-1.1441-0.23956-1.0796-0.77154c0.064819-0.53168 0.71384-0.14618 0.90695-0.79767 0.61908-2.0897-0.30237-3.6168-1.9544-3.6492-1.8248 0.00708-2.6383 1.5743-2.019 3.6639 0.19296 0.65143 0.84186 0.26587 0.90656 0.79773 0.064911 0.5318-1.0793 0.7713-1.0793 0.7713l-0.054 6.795v0.39868l4.3943-0.0278z"/>
   <g stroke-width=".904">
    <path d="m60.49 845.22l153.15 0.027 1e-3 -1.07c-0.013275 0-136.24-0.3551-153.16-0.36896l0.0086 1.412h1.1e-4z"/>
    <path d="m60.504 838.72h153.41v3.5876h-153.41l-9e-4 -3.5876z"/>
   </g>
   <path d="m385.22 838.95h273.67v3.7231h-273.94l0.2769-3.7231h1.22e-4z"/>
   <path d="m658.48 844.23c-0.024414 0-274.31-0.13391-274.31-0.13391l0.022 1.2443h274.28l0.0014-1.1104h6.71e-4z"/>
   <path d="m350.46 838.77h35.844v24.973h-36.027l0.1833-24.973z"/>
   <path d="m213.13 838.77h35.844v24.973h-36.027l0.1832-24.973z"/>
  </g>
  <path d="m245.87 840.83l46.118-28.314 1.3704 3.3511-46.146 28.307-1.3418-3.3445z" fill-rule="evenodd"/>
  <g fill="none">
   <path d="m246.14 857.79c0.033524 0.007141 28.028-28.543 46.566-40.216l1.295-0.8151" stroke-width="3"/>
   <path d="m251.04 852.58l-4.4767-9.5561 8.4051 4.0359-2.7241-6.9069 7.9623 2.335-2.6657-6.6536 7.3928 2.2982-2.194-5.6656 6.959 1.6431-1.8575-4.5944 5.7725 0.9747-1.6561-3.4998 5.2708 0.6287-1.3671-3.0236 4.5759 0.3422-1.078-2.5474 4.1707 0.1747-1.54-3.6901" stroke-width="2.9"/>
  </g>
  <path d="m352.86 840.31l-46.118-28.314-1.3703 3.3511 46.146 28.307 1.342-3.3442z" fill-rule="evenodd"/>
  <g fill="none">
   <path d="m352.58 857.27c-0.033447 0.007141-28.028-28.543-46.566-40.216l-1.2949-0.8155" stroke-width="3"/>
   <path d="m347.68 852.06l4.4767-9.556-8.4052 4.0358 2.7241-6.9068-7.9623 2.3348 2.6658-6.6536-7.3928 2.298 2.194-5.6654-6.959 1.643 1.8573-4.5946-5.7724 0.9749 1.656-3.4999-5.2707 0.6287 1.3671-3.0235-4.576 0.342 1.078-2.5474-4.1707 0.1749 1.5399-3.6899" stroke-width="2.9"/>
  </g>
  <g fill-rule="evenodd" stroke-width=".206">
   <path d="m67.609 789.14c0.16793-0.090942 0.30073-0.33209 0.30073-0.58362 0-0.33337-0.20798-0.6037-0.46416-0.6037-0.25617 0-0.46404 0.27032-0.46404 0.6037 0 0.26154 0.12798 0.48444 0.32492 0.58179l-0.0466 3.3832-0.7771 0.0142v0.64911h0.29077s0.064148 0.98627-0.088463 1.7114c-2.0147 6.4686-3.8758 7.2552-3.8758 7.2552l-2.2706-0.027-1.0957 2.5839-0.0225 8.8627-1.1672 0.0156-0.0161 1.9903h1.2058v20.757l-1.3384 4.2692 0.0432 21.346 18.4-7e-4 -0.0432-21.626-1.3814-4.2692v-20.477h1.2058l-0.0161-1.9904-1.1672-0.0156-0.0225-8.8627-0.9661-2.4716-2.0033-0.0853s-1.6174-1.2211-3.9012-7.348c-0.058678-1.119 0.006653-1.6232-0.003853-1.6326l0.2896 0.0046-0.0054-0.6671h-0.7879l-0.1365-3.3671 2e-4 -6e-4z"/>
   <path d="m530.71 789.14c0.16803-0.090942 0.30084-0.33209 0.30084-0.58362 0-0.33337-0.20801-0.6037-0.46405-0.6037-0.25616 0-0.46417 0.27032-0.46417 0.6037 0 0.26154 0.12787 0.48444 0.32507 0.58179l-0.0464 3.3832-0.7773 0.0142v0.64911h0.29077s0.064209 0.98627-0.088196 1.7114c-2.0148 6.4686-3.8758 7.2552-3.8758 7.2552l-2.2706-0.027-1.0957 2.5839-0.0224 8.8627-1.1672 0.0156-0.0161 1.9903h1.2057v20.757l-1.3383 4.2692 0.0431 21.346 18.4-7e-4 -0.043-21.626-1.3817-4.2692v-20.477h1.2059l-0.016-1.9904-1.1674-0.0156-0.0225-8.8627-0.966-2.4716-2.0034-0.0853s-1.6172-1.2211-3.9011-7.348c-0.058777-1.119 0.007019-1.6232-0.005005-1.6326l0.2899 0.0046-0.0055-0.6671h-0.7879l-0.1367-3.3671 9e-4 -6e-4z"/>
  </g>
 </g>
</svg>
